<?xml version="1.0" standalone="no"?><!DOCTYPE svg PUBLIC "-//W3C//DTD SVG 1.1//EN" "http://www.w3.org/Graphics/SVG/1.1/DTD/svg11.dtd"><svg class="icon" height="512" viewBox="0 0 1024 1024" version="1.1" xmlns="http://www.w3.org/2000/svg"><path d="M560.832 1011.84a29.504 29.504 0 0 1-15.296 5.76C296.32 1038.464 0 983.04 0 850.88c0-166.656 90.752-287.488 224.896-348.352a34.432 34.432 0 0 1 33.92 4.032 316.16 316.16 0 0 0 273.728 44.672C480 608.32 448 684.416 448 768c0 97.728 43.776 185.152 112.832 243.84zM218.688 227.136s0 123.968 0 0S318.4 2.56 441.344 2.56s222.592 100.48 222.592 224.512c0 123.968-99.648 224.512-222.592 224.512-122.944 0-222.656-100.48-222.656-224.512zM768 1024a256 256 0 1 1 0-512 256 256 0 0 1 0 512z m189.056-280.704h-18.88a22.912 22.912 0 0 1-20.48-15.616l-10.816-27.456a24.128 24.128 0 0 1 3.712-25.984l13.376-13.952a16.896 16.896 0 0 0 0-23.168l-22.336-23.168a15.36 15.36 0 0 0-22.272 0l-13.44 13.952a21.888 21.888 0 0 1-24.96 3.84l-26.368-11.264a23.68 23.68 0 0 1-15.104-21.248v-19.648a16.128 16.128 0 0 0-15.744-16.384h-31.488a16.128 16.128 0 0 0-15.744 16.384v19.648c0 8.96-6.784 18.56-15.104 21.248l-26.304 11.264a21.824 21.824 0 0 1-25.024-3.84l-13.44-13.952a15.36 15.36 0 0 0-22.272 0l-22.272 23.168a16.832 16.832 0 0 0 0 23.168l13.312 13.952c6.208 6.4 7.872 18.048 3.776 25.984l-10.88 27.456a22.912 22.912 0 0 1-20.48 15.616h-18.88a16.128 16.128 0 0 0-15.744 16.384v32.704c0 9.024 7.04 16.448 15.744 16.448h18.944c8.64 0 17.856 7.04 20.416 15.616l10.88 27.392a24.256 24.256 0 0 1-3.776 26.048l-13.376 13.952a16.96 16.96 0 0 0 0 23.168l22.336 23.168c6.08 6.4 16.128 6.4 22.272 0l13.44-13.952a21.76 21.76 0 0 1 24.96-3.84l26.368 11.328a23.68 23.68 0 0 1 15.104 21.248v19.584c0 8.96 7.04 16.384 15.744 16.384h31.488a16.128 16.128 0 0 0 15.744-16.384v-19.584a23.68 23.68 0 0 1 15.104-21.248l26.368-11.264a21.952 21.952 0 0 1 25.088 3.776l13.312 13.952c6.144 6.4 16.128 6.4 22.272 0l22.336-23.168a16.896 16.896 0 0 0 0-23.168l-13.44-13.952a24.192 24.192 0 0 1-3.648-26.048l10.88-27.392a22.976 22.976 0 0 1 20.416-15.616h18.88a16.128 16.128 0 0 0 15.744-16.384v-32.768a16.128 16.128 0 0 0-15.744-16.384z m-188.992 114.56c-43.52 0-78.72-36.608-78.72-81.792 0-45.248 35.2-81.92 78.72-81.92 43.52 0 78.72 36.672 78.72 81.92 0 45.184-35.2 81.856-78.72 81.856z" /></svg>